<?xml version="1.0" encoding="utf-8"?>
<svg width="20px" height="20px" viewBox="0 0 48 48" fillrule="evenodd" cliprule="evenodd" strokelinejoin="round" strokemiterlimit="2" xmlns="http://www.w3.org/2000/svg">
  <g fill="#0058b0" fillrule="nonzero">
    <path d="M 43.252 11.743 L 4.748 11.743 C 4.334 11.743 3.993 12.084 3.993 12.498 L 3.993 40.521 C 3.993 40.935 4.334 41.276 4.748 41.276 L 43.252 41.276 C 43.666 41.276 44.007 40.935 44.007 40.521 L 44.007 12.492 C 44.004 12.08 43.663 11.743 43.252 11.743 Z M 42.498 39.76 L 5.503 39.76 L 5.503 13.252 L 42.498 13.252 L 42.498 39.76 Z"/>
    <path d="M 31.6 37.002 L 40.203 37.002 L 30.947 25.217 L 26.645 30.693 L 19.699 21.847 L 7.797 37.002 L 31.6 37.002 Z"/>
    <path d="M 34.607 24.719 C 37.009 24.716 38.985 22.739 38.985 20.337 C 38.985 17.934 37.007 15.956 34.603 15.956 C 32.2 15.956 30.222 17.934 30.222 20.337 C 30.225 22.741 32.203 24.718 34.607 24.719 Z M 34.607 17.465 C 36.181 17.468 37.475 18.764 37.475 20.337 C 37.475 21.913 36.178 23.209 34.603 23.209 C 33.027 23.209 31.731 21.913 31.731 20.337 C 31.732 18.762 33.03 17.465 34.605 17.465 L 34.607 17.465 Z"/>
  </g>
</svg>