<?xml version="1.0" encoding="UTF-8" standalone="no"?><!DOCTYPE svg PUBLIC "-//W3C//DTD SVG 1.1//EN" "http://www.w3.org/Graphics/SVG/1.1/DTD/svg11.dtd"><svg width="100%" height="100%" viewBox="0 0 512 512" version="1.1" xmlns="http://www.w3.org/2000/svg" xmlns:xlink="http://www.w3.org/1999/xlink" xml:space="preserve" xmlns:serif="http://www.serif.com/" style="fill-rule:evenodd;clip-rule:evenodd;stroke-linejoin:round;stroke-miterlimit:2;"><rect id="Artboard1" x="0" y="0" width="512" height="512" style="fill:none;"/><clipPath id="_clip1"><rect x="0" y="0" width="512" height="512"/></clipPath><g clip-path="url(#_clip1)"><path d="M266.06,208.457l149.94,53.056l0,216.433c0,8.696 -7.223,15.852 -16,15.852l-64,-0c-8.777,-0 -16,-7.156 -16,-15.852l0,-110.966l-160,-0l0,110.966c0,8.696 -7.223,15.852 -16,15.852l-64,-0c-8.777,-0 -16,-7.156 -16,-15.852l0,-211.935c-37.16,-13.128 -64,-47.983 -64,-89.258c-0,-17.393 14.445,-31.705 32,-31.705c17.555,0 32,14.312 32,31.705c0.033,17.38 14.458,31.672 32,31.704l170.06,0Zm245.94,-110.965l0,31.704c0,34.785 -28.891,63.409 -64,63.409l-32,0l0,35.252l-128,-45.288l0,-148.486c0,-14.119 17.22,-21.193 27.31,-11.206l27.28,27.058l53.63,-0c10.91,-0 23.75,7.847 28.62,17.527l7.16,14.177l64,0c8.777,0 16,7.156 16,15.853Zm-112,-0c0,-8.697 -7.223,-15.853 -16,-15.853c-8.777,0 -16,7.156 -16,15.853c0,8.696 7.223,15.852 16,15.852c8.777,-0 16,-7.156 16,-15.852Z" style="fill-rule:nonzero;"/></g></svg>