<?xml version="1.0" encoding="UTF-8" standalone="no"?><!DOCTYPE svg PUBLIC "-//W3C//DTD SVG 1.1//EN" "http://www.w3.org/Graphics/SVG/1.1/DTD/svg11.dtd"><svg width="100%" height="100%" viewBox="0 0 512 512" version="1.1" xmlns="http://www.w3.org/2000/svg" xmlns:xlink="http://www.w3.org/1999/xlink" xml:space="preserve" xmlns:serif="http://www.serif.com/" style="fill-rule:evenodd;clip-rule:evenodd;stroke-linejoin:round;stroke-miterlimit:2;"><rect id="Artboard1" x="0" y="0" width="512" height="512" style="fill:none;"/><path d="M256,0c-141.419,0 -256,114.581 -256,256c0,141.419 114.581,256 256,256c141.419,0 256,-114.581 256,-256c0,-141.419 -114.581,-256 -256,-256Zm-140.387,222.348c3.406,-43.458 33.239,-73.703 57.806,-73.703c24.568,0 54.4,30.245 57.807,73.703c0.722,8.878 -11.149,12.284 -15.381,4.646l-9.806,-17.549c-7.949,-14.142 -19.82,-22.297 -32.516,-22.297c-12.697,0 -24.568,8.155 -32.517,22.297l-9.806,17.549c-4.439,7.638 -16.31,4.129 -15.587,-4.646Zm258.89,126.762c-29.419,35.303 -72.568,55.535 -118.503,55.535c-45.935,0 -89.084,-20.232 -118.503,-55.535c-13.936,-16.826 11.355,-37.884 25.393,-21.162c23.123,27.768 56.981,43.562 93.11,43.562c36.129,-0 69.987,-15.897 93.11,-43.562c14.038,-16.722 39.329,4.439 25.393,21.162Zm6.4,-122.116l-9.806,-17.549c-7.949,-14.142 -19.82,-22.297 -32.516,-22.297c-12.697,0 -24.568,8.155 -32.516,22.297l-9.807,17.549c-4.232,7.535 -16.103,4.129 -15.381,-4.646c3.407,-43.458 33.239,-73.703 57.807,-73.703c24.568,0 54.4,30.245 57.806,73.703c0.62,8.878 -11.355,12.284 -15.587,4.646Z" style="fill-rule:nonzero;"/></svg>