<svg xmlns="http://www.w3.org/2000/svg" viewBox="21.24 27.31 149.59 139.17">
	<path fill="#000"
		  d="M41.9,-68.2C54.8,-65,66.1,-54.9,69.5,-42.4C73,-29.8,68.5,-14.9,68,-0.3C67.5,14.3,71,28.7,66.5,39.4C62,50,49.5,57,37,61.3C24.6,65.7,12.3,67.5,0.9,65.9C-10.5,64.3,-20.9,59.3,-34,55.3C-47.1,51.4,-62.9,48.4,-71.1,39.3C-79.3,30.3,-79.9,15.1,-77.6,1.3C-75.4,-12.6,-70.4,-25.2,-64.8,-38.7C-59.2,-52.3,-53.1,-66.9,-42.2,-71.2C-31.3,-75.4,-15.7,-69.5,-0.6,-68.4C14.5,-67.4,28.9,-71.3,41.9,-68.2Z"
		  transform="translate(100 100)"></path>
</svg>
